<?xml version="1.0" encoding="UTF-8"?>
<svg id="Layer_1" data-name="Layer 1" xmlns="http://www.w3.org/2000/svg" viewBox="0 0 856 1317.91">
  <defs>
    <style>
      .cls-1 {
        fill: #efa876;
      }

      .cls-2 {
        fill: #da8951;
      }

      .cls-3 {
        fill: #763b33;
      }

      .cls-4 {
        fill: #a25722;
      }

      .cls-5 {
        fill: #f1ad7c;
      }

      .cls-6 {
        fill: #502c29;
      }

      .cls-7 {
        fill: #f1ac7b;
      }

      .cls-8 {
        fill: #773c33;
      }

      .cls-9 {
        fill: #eea978;
      }

      .cls-10 {
        fill: #eea470;
      }

      .cls-11 {
        fill: #c5683b;
      }

      .cls-12 {
        fill: #542d29;
      }

      .cls-13 {
        fill: #c4683b;
      }

      .cls-14 {
        fill: #bf6238;
      }

      .cls-15 {
        fill: #783c34;
      }

      .cls-16 {
        fill: #223446;
      }

      .cls-17 {
        fill: #512c29;
      }

      .cls-18 {
        fill: #18232c;
      }

      .cls-19 {
        fill: #f4e0c2;
      }

      .cls-20 {
        fill: #213446;
      }

      .cls-21 {
        fill: #17232c;
      }

      .cls-22 {
        fill: #bd5f35;
      }

      .cls-23 {
        fill: #bf5f35;
      }

      .cls-24 {
        fill: #4f2c2a;
      }

      .cls-25 {
        fill: #c7683b;
      }

      .cls-26 {
        fill: #010720;
      }

      .cls-27 {
        fill: #19232c;
      }

      .cls-28 {
        fill: #4f2c29;
      }

      .cls-29 {
        fill: #773c34;
      }

      .cls-30 {
        fill: #cea479;
      }

      .cls-31 {
        fill: #c06036;
      }

      .cls-32 {
        fill: #19232b;
      }

      .cls-33 {
        fill: #763c33;
      }

      .cls-34 {
        fill: #010820;
      }

      .cls-35 {
        fill: #a25621;
      }

      .cls-36 {
        fill: #f0ab7a;
      }

      .cls-37 {
        fill: #502d2a;
      }

      .cls-38 {
        fill: #efaa79;
      }

      .cls-39 {
        fill: #a15621;
      }

      .cls-40 {
        fill: #fefefe;
      }

      .cls-41 {
        fill: #cd7844;
      }

      .cls-42 {
        fill: #f4e0c3;
      }

      .cls-43 {
        fill: #f4e1c3;
      }

      .cls-44 {
        fill: #f3dfc1;
      }

      .cls-45 {
        fill: #f0ad7c;
      }

      .cls-46 {
        fill: #17232b;
      }

      .cls-47 {
        fill: #f1ad7b;
      }

      .cls-48 {
        fill: #223546;
      }

      .cls-49 {
        fill: #db8a4f;
      }

      .cls-50 {
        fill: #7a3d34;
      }

      .cls-51 {
        fill: #cfa57a;
      }

      .cls-52 {
        fill: #f3e0c2;
      }

      .cls-53 {
        fill: #c36439;
      }
    </style>
  </defs>
  <path class="cls-40" d="M24,1316.91h34c.28-.87.62-.86,1,0l1.15-2h17.42l1.43,2,.69-2h77.09l1.21,2c.32-2.87,2.26-2.72,3,0l.95-2h311.81l1.24,2,1.2-1.75c29.88-.46,60.68-.37,90.59-.04l1.2,1.8c-.03-1.04.17-2.11,1.23-2h165.53l1.23,2c-.05-.47-.06-.93.08-1.33.57-1.71,34.08-1.35,35.75-.67l1.17,2c-.05-.47-.06-.93.08-1.33.57-1.71,34.08-1.35,35.75-.67l1.17,2h46v1H0v-1h24Z"/>
  <g>
    <g>
      <path class="cls-46" d="M494,369.91l3.28,3.31,54.72,20.69c-.11-.04-.74,1.11-2.2.86-8.22-1.41-20.86-9.31-29.53-11.63-.97-.26-3.52-1-3.26.76,11.19,7,19.46,17.57,28.98,26.53,7.7,7.24,16.36,13.64,23.9,21.1,5.21,5.68-11.92,18.91-8.77,23.27,9.7,5.36,19.9,10.22,29.18,16.32,4.67,3.07,5.24,3.31,5.74,9.26,2.43,28.89-.08,65.71-1.08,95-3.49,101.69-23.29,203.51-56.5,299.5-7.35,21.24-23.73,53.84-26.35,74.64-1.04,8.3-.39,6.98,6.23,9.57.68.27,4.12.96,1.66,1.83l-2.8,1.05-15.95-4.49-3,11.62-2.25.82c-3.69,1.56-2.83-3.39-2.17-6.19l2.33-8.23c-79.68-14.85-158.73-33.67-235.7-59.21-21.73-5.69-45.01-10.29-66.07-.49-21.25,9.9-38.09,29.97-50.72,49.15-5.5,11.65-21.76,9.2-10.44-2.83,21.9-33.39,37.28-51.76,75.32-65.58.41-.15,2.85-1.15,2.73-1.24-5.48-4.22-25.49-4.81-32.57-4.34-39.96,2.64-69.06,32.86-88.78,64.8-9.82,3.79-7.87-5.02-5.39-11.3,16.82-42.67,88.52-84.52,132.89-61.8,4.15-18.7-14.86-32.1-28.98-40.96-30.58-15.49-62.04-29.31-94.39-41.46-5.68-2.27-18.95-8.48-8.45-13.19,18.96,6.34,38.37,12.08,58.22,17.22,23.78,7.03,46.42,17.9,65.39,33.97-.06-6.89-1.1-13.78-2.15-20.6-4.11-26.72-9.9-53.77-15.58-80.07-8.2-37.94-39.12-62.99-71.02-84.01l-41.36-24.95c-11.95-5.95-11.63-19.5,3.86-12.26,38.78,18.12,74.31,44.28,101.85,76.35-8.55-40.42-23.75-81.69-43.89-117.58-16.39-29.21-42.31-68.75-79.84-65-5.13.13-7.49-1.27-7.07-4.21,2.88-2.12,6.04-3.98,9-6,19.64-.01,34.89,5.37,49.49,18.92,49.33,45.77,72.96,120.53,91.52,183.84,17.51,68.94,37.78,137.25,60.83,204.93l27.26,8.34c71.18,17.24,142.14,35.19,212.88,53.86-.15-15.63.18-30.64.98-45.03-6.04-13.9-13.4-27.29-22.08-40.16-69.16-128.81-152.35-250.69-244-363.9-3.44-3.22-3.09-6.08-.17-8.8,7.54-7.22,14.75-14.69,21.64-22.4l-36.31-10.28c-1.63-.41-2.43-1.52-2.59-3.18l.53-64.54c-2.03.45-3.35-.08-3.97-1.59,4.27-2.39,8.52-5.03,13-7l1.79,2.39c-1,21.26-1.01,43.27,1.9,63.81l40.75,11.13c3.46,1.06,2.07,6.05.74,8.57l-25.04,28.17c94.72,120,185.96,250.03,256.29,385.21,2.46,5.68,3.61,4.66,3.47-3.08l2.1-1.2c1.37-.6,1.81-.02,1.71,1.35-.11,1.54-1.59-3.5,1.29-3.35l2.05,1.01c.82,10.31-.07,20.76-2.66,31.35,19.97-50.08,36.7-106.01,48.86-159.6,19.98-87.99,24.11-179.83,21.78-269.22l-40.21-21.38c-2.53-3.81.69-7.71,3.11-10.63,4.11-3.85,7.38-8.07,9.82-12.68-10.29-10.77-21.34-21.05-33.15-30.84-.47-.76-28.3-31.82-28.62-26.71l3.14,21.78c.04,2.51-.52,4.24-3.14,2.93-3.95-6.39-5.92-18.66-5.51-26.42.09-1.63.77-3.15,1.51-4.58v-1Z"/>
      <path class="cls-20" d="M219,389.91l6-.99-.56,68.06,39.56,10.94c.84.72-2.74,5.1-3.48,6.01-2.79,3.42-21.69,20.37-21.39,22.3,17.37,24.38,37.21,46.95,55.31,70.74,71.8,94.38,133.43,190.68,190.17,294.83,5.41,9.93,20.73,32.34,23.15,41.85,1.39,5.46-.55,11.64-.75,16.77-.4,10.16-.7,20.34-1.02,30.49-27.52-6.06-54.7-13.55-82.01-20.49-44.01-11.18-88.75-20.15-132.43-32.57-9.41-2.67-18.74-5.95-28.05-8.95-17.43-43.87-29.3-89.55-42.05-134.95-22.33-79.55-43.64-180.28-99.95-243.05-16.49-18.38-33.16-30.82-59.51-28l1-2.99c48.03-32.74,104.93-61.37,156-90Z"/>
      <path class="cls-16" d="M273,332.91c2.55,6.54,3.9,13.5,4.04,20.88,4.49,19.33,13.11,37.65,25.88,54.96,22.73,33.08,43.42,66.8,62.09,101.16,1.29,1.31,2.55,2.65,3.7,4.07s2.28,2.83,3.11,4.39c19.43,36.21,38.88,72.46,55.64,110.01l4.56,15.53c2.56-.95,2.69-.09,1,2,3.36.18,5.25,6.74,3,9,8.73,13.1,15.63,29.46,18,45,4.18,4.66,6.4,9.7,6,16,1.83,1.9,3.36,4.03,4.46,6.43,4.95,10.83,9.01,24.92,10.54,36.57,4.01,4.01,5.34,8.01,4,12,9.02,15.52,15.95,33.3,19,51,2.64,3.74,6.29,9.76,5,14,3.52,7.13,5.98,14.8,7.38,23.01,2.63,6.47,3.84,12.8,3.62,18.99l-1.01,13c-.28.37-1.09-.55-1.47-1.02-12.46-15.28-22.51-44.35-34.65-61.13-64.53-115.21-140.84-220.97-221.9-325.32-1.82-2.34-6.09-4.25-4.5-7.51l24.98-28.07,1.61-5.39-42.93-11.7c-.75-.71-2.05-14.82-2.17-17.32-.64-14.11-1.39-36.94.04-50.54.79-7.53,11.24-14.82,15.97-20.53,8.57-10.35,13.42-23.81,24.03-32.47.23.69.95,2.56,1,3Z"/>
      <path class="cls-21" d="M676,433.91c4.85,1.72,10.21,2.15,15,4l-3.99,1.49c1.96,2.77,3.68,5.88,5.01,8.99,8.4,19.76,12.93,43.63,14.98,65.02,3.55,36.95,1.36,74.4,2.01,111.5,10.8-9.2,17.49-22.28,26.96-32.53,5.85-6.33,14.73-11.57,7.87,1.87-8.3,16.25-25.5,32.08-34.82,48.18.23,58.36-2.02,116.84-11.01,174.48l19.73-10.76c17.6-6.56,35.53-8.02,54.26-7.23.54,3.15-.98,1.51-2.47,1.98-12.19,3.83-22.66,4.57-35.21,9.83-10.17,4.27-21.69,9.2-27.32,19.17,23.84-4.86,47-10.66,71.22-3.71,1.03.29,15.42,5.33,12.78,7.71-22.79-6.43-52.11-2.67-73.24,8.26-17.2,8.9-22.28,28.47-31.73,44.27-8.25,13.8-18.8,25.97-27.86,39.14-11.41,16.59-22.13,33.74-34.16,49.84,3.94.42,7.75-2.02,11.59-2.4,7.76-.76,16.34,1.69,23.63,4.16.67.23,4.27.76,1.76,1.73l-2.18,1.31c-12.26-4.27-26.76-5.54-37.82,1.69-2.85,2.73-12.15-1.44-13-5,3.33-1.41,4.78-3.9,6.81-6.69,11.46-15.82,24.75-38.13,34.99-55.01,20.24-33.35,28.39-58.46,34.95-97.05,16.79-98.68,25.48-215.32,13.12-314.63-2.78-22.31-8.04-44.13-14.36-65.64l-8.15-2.87.63-1.12Z"/>
      <path class="cls-48" d="M110,1083.91l1.01,2.5,3-26.49c1.6-.12.37,1.41,2.35,2.17,4.93,1.9,25.23,4.46,26.45,8.51s-1.39,23.01-1.88,28.73-3.13,7.17.87,14.29c5.77,10.27,22.5,8.03,32.19,11.33l-15.98,191.96h-79c5.02-64.76,13.76-132.08,23.66-193.88l2.34-1.12c1.69-12.63,3.32-25.4,5-38Z"/>
      <path class="cls-16" d="M161,1316.91l19.01-191c17.42,2.69,34.96,5.13,52.5,6.99,20.24,2.14,43.97,5.16,64,6,6.02.25,10.65.88,15.04-3.94,5.25-5.78,6.02-25.88,7.76-34.27.3-1.46.18-4.22,2.17-3.85,42.09,10.91,82.71,26.4,124.31,38.78,6.56,1.95,23.21,8.86,28.26,3.58,4.29-4.48,4.03-21.7,10.46-22.28.75-.07,8.75.84,9.93,1.06,3.32.62,5.68,3.99,7.45,6.64.78,1.17.25,2.66,1.06,3.81,4.35,6.15,10.22,12.21,15.57,17.52-7.67,58.47-24.38,115.43-43.53,170.97H161Z"/>
      <path class="cls-20" d="M568,1316.91c-17.87-52.87-31.36-107.43-37.99-163l16.32,9.17c23.87,17.95,52.99,30.19,82.66,18.31,22.24-8.91,37.14-30.95,54.54-46.47,2.1-.9,1.57,2.65,3.02,2.98.62.14,10.22-4.65,11.41-5.55,4.55-3.45,3.17-2.7,8.43-5.57,3.06-1.67,7.81-7.66,11.13-9.88l1.48,5.99c.17-1.27-.21-2.81.01-3.99l2.05.53c5.61,65.35,11.22,130.7,16.83,196.07l-1.89,1.4h-168Z"/>
      <path class="cls-43" d="M520,960.91c3.93,1.64,4.05,3.24,5,4-4.99,31.71-12.29,63.14-21,94,1.21,5.4-.25,14.01-5,17-.59,1.71-2.28,9.72-3.66,10.05-3.26-.17-6.57.16-9.83-.06-4.82-.33-13.76-3.43-17.51-2.99-2.53-1.56-1.72-.6-1.28-2.7,7.45-36.01,19.61-74.51,29.28-110.3.68-2.52,2.78-14.38,4.62-14.94,6.11,1.91,13.58,3.52,19.38,5.94Z"/>
      <g>
        <path class="cls-16" d="M552,393.91c.3.1.7-.1,1,0,6.7,2.1,13.26,4.97,20,7,35.27,10.64,68.2,20.68,103,33,2.49,1.61,5.35,2.67,8.57,3.2,15.39,43.78,19.16,91.04,20.65,137.45,2.75,85.62-5.57,174.78-21.22,258.63-10.05,53.83-40.99,100.79-72.48,143.95l-3.53-.24c-2.2,1.46-5.33,1.38-9.39-.22-24.64-2.46-49.07-5.57-73.3-9.34l-.3-2.44c-2.19,1.71-4.9-1.63-5-4-3-1.58-6.33-3.16-9.99-4.74-2.45-3.39,4.89-26.96,6.74-31.7,59.08-139.48,83.28-296.91,76.71-447.83-10.08-7.81-21.3-14.64-33.67-20.47-2.04-2.67-.58-5.68,1.03-8.17,4.16-4.69,6.77-9.63,7.83-14.84-17.78-16.22-35.49-32.38-53.13-48.49-.15-2.92.44-3.8,3.06-2.62,11.08,4.72,22.22,8.68,33.41,11.88Z"/>
        <path class="cls-46" d="M691,617.92c1.95,1.74-7.96,6.93-8.97,7.52-10.05,5.77-25.04,11.52-36.05,15.95-6.34,2.55-38.05,15.21-42.26,14.55-.73-.12-1.04-2.51-2.7-2.04-.54-1,12.65-7.38,14.31-8.16,14.53-6.83,27.38-10.3,42.2-15.8,4.58-1.7,31.33-13.93,33.48-12.01Z"/>
      </g>
      <path class="cls-12" d="M521,851.91c-1.2,7.99-2.2,16.12-4,24-.39,1.72-.17,5.15-1.99,4.99.29-1.27-.73-2.14-1.01-2.99-4.47-13.32-8.34-28.26-11-42l2.5-.14c1.04.65,13.64,11.73,14.22,12.49.86,1.13,1.05,2.23,1.28,3.65Z"/>
      <g>
        <path class="cls-48" d="M54,485.91c4.38,3.74,11.9,1.5,17.48,2.02,49.21,4.57,86.04,92.12,100.97,133.03,6.63,18.16,12.13,36.96,15.54,55.95-6.94-2.79-10.17-9.68-14.96-14.53-24.14-24.42-59.18-50.52-90.82-64.18-1.17-.51-8.84-2.67-9.2-2.29.1,1.69-.37,3.74.16,5.33,1.28,3.8,41.9,26.52,48.36,30.64,18.22,11.61,33.81,23.62,47.98,40.02,18.32,21.19,20.46,28.55,26.22,55.78,3.85,18.2,7.79,37.72,10.99,56.01,2.22,12.69,4.67,26.55,4.78,39.22-16.56-14.94-35.93-25.62-56.97-33.03-17.76-6.25-36.27-10.34-54.3-15.7-4.75-1.41-10.33-4.13-14.85-5.16-2.07-.47-1.76,1.88-1.4,3.21,1.11,4.13,68.2,29.2,77.7,33.51,19.11,8.67,57.63,26.94,58.38,50.67.42,13.43-4.82,6.75-10.85,4.81-42.84-13.74-100.43,21.29-120.36,59.04-1.67,3.16-8.33,15.49-1.35,14.72,2.09-.23,6.83-9.74,8.7-12.37,25.65-36.16,61.04-61.02,107.64-52.01l11.17,3.81c-3.18,4.72-9.05,4.35-13.68,6.32-30.47,12.96-49.72,34.93-66.47,62.58-.59.98-7.61,5.86-1.14,7.51,2.21.56,3.53-1.58,4.81-2.89,6.43-6.62,11.55-17.05,18.45-24.53,33.76-36.63,55.73-41.8,104.08-29.02,77.27,25.74,156.78,44.39,236.97,59.54,1.53,1.49-4.82,13.34-2.01,16l.28,4.07c-9.94,36.3-19.37,72.61-28.28,108.93l-11.18,34.24-2.05,2.28c-97.56-29.28-195.57-56.72-294.03-82.31-15.03-3.47-29.28-8.54-42.74-15.21-25.36-8.27-36.53-15.06-48-40-2.71-5.88-4.83-11.91-7-18-10.96-30.71-18.81-64.15-26-96-1.57-6.96-3.57-14.05-5-21-8.83-42.95-15.09-86.18-17-130-.34-7.7-1.03-15.17-1-23,.02-4.11-.85-9.67,1-13-.16,4.91.18,9.25,1,12.99-.42-26.09-.31-54.72,0-80.99-.8,1.75-1.13,4.42-1,8-1.84-2.98-.98-8.22-1-12-.44-20.68-.11-41.35,1-62,3.96-24.59,19.31-46.55,39-61Z"/>
        <g>
          <polygon class="cls-26" points="15 620.91 15 612.9 16 612.9 16 612.91 16 693.9 16 693.9 15 693.9 15 680.91 15 612.9 16 612.9 16 693.9 15 693.9 15 620.91"/>
          <path class="cls-34" d="M14,608.91c-.08-19.24-1.99-43.41,1-62l-1,62Z"/>
          <g>
            <path class="cls-18" d="M362.01,1068.9c3.16.31,2.92-4.15,5.61-5.88,8.16-5.26,15.86.99,18.4,8.89,2.6.78,1.62-1.22,2.7-1.99,15.26-11.07,30.39,11.87,15.24,21.45-7.66,4.84-19.59-2.13-17.96-11.45-2.74-.79-1.87,1.8-3.43,3.02-8.68,6.79-18.3,2.07-20.57-8.02-7.38,8.45-22.79,6.18-23.78-5.79-1.48-17.95,25.1-19.3,23.79-.21Z"/>
            <path class="cls-18" d="M186,843.91h-27.5c-16.81,0-49.55,16.55-62.97,27.03-3.29,2.57-19.6,19-21.02,19.01-1.31,0-1.83-.64-2.46-1.64-.5-1.87,4.16-9.38,5.52-11.33,14.28-20.36,55.35-40.71,79.89-41.1,9.52-.15,21.68.8,28.55,8.04Z"/>
            <path class="cls-18" d="M49.01,658.91c4.93,1.76,10.22,2.68,15.18,4.31,27.64,9.11,58.34,27.08,82.15,43.85,3.45,2.43,13.97,9.57,16.17,11.83,2.03,2.09,3.88,5.41-.49,4.51l-44.98-26.03c-19.16-10.07-47.25-18.76-63.5-32.5-.85-.72-5.64-4.94-4.52-5.97Z"/>
          </g>
        </g>
      </g>
      <path class="cls-17" d="M526,812.91c-1.18,10.03-2.62,20.25-4,30-.58.53-1.52,1.24-1.99.92-7.43-5.17-17.2-14.41-22.01-21.92-6.14-17.05-12.81-33.96-19-51,.59-.53,1.59-1.23,2.02-.88,12.99,10.8,29.03,24.49,40.77,36.43,2.53,1.63,3.94,3.78,4.22,6.45Z"/>
      <path class="cls-50" d="M522,842.91c-.42,2.93-.55,6-1,9-5.31-4.49-13.78-10.72-18-16-3.39-4.24-3.33-9.35-5-14l24,21Z"/>
      <g>
        <path class="cls-16" d="M745,533.91c2.26,6,4.8,12,7,18,13.54,37,25.13,74.77,38,112,2.2,6.38,4.8,12.66,7,19,7.23,10.95,11.47,25.88,13,39,10.33,27.89,31.98,69.14,35,97-.14,4.28-1.28,4.33-4.76,2.3-10.15-7.49-24.15-10.68-36.77-10.02l19.68,8.78c11.4,5.91,19.55,16.79,18.85,29.94-7.4,32.29-19.38,63.49-32,94-.33,2.16-.71,4.31-1.23,6.43s-1.06,4.2-1.88,6.17c-8.2,19.8-17.07,39.48-26.49,58.73-.94,1.92-2.15,3.71-3.39,5.49s-2.61,3.49-4.01,5.17c-4.49,16.67-13.75,33.33-22.3,48.51-4.94,8.78-9.95,17.62-15.92,25.73-.36.48-.97.79-1.62,1.1s-1.41.51-2.16.66c-1.8,1.89-3.06,1.74-3.78-.46-1.6-16.64-4.7-32.88-9.31-48.72-4.62-8.39-8.59-16.99-11.9-25.82l-2.44-1.14c-7.64-18.94-23.66-34.98-41.68-44.31l-.87-2.55c-8.54-4.94-24.68-6.99-35.85-2.43-3.04.12-2.92-2.19-.56-5.19,20.85-29.99,41.48-59.88,61.88-89.66,12.12-26.77,20.58-41,50.79-49,14.81-3.92,30.46-5.01,45.58-2.57-23.84-6.84-48.57-6.36-74.21,1.42-3.05.03-2.75-1.63-2.26-4.35,2.03-11.2,45.52-25.57,56.29-26.38-23.08-.78-44,5.43-62.44,17.23-4.01.06-4.95-1.98-3.36-6.71,8.34-56.02,10.31-112.7,10.28-169.26,9.22-13.67,19.06-26.9,29.52-39.71,1.29-1.81,7.88-12.33,7.46-13.76-.86-2.96-22.21,24.12-22.96,26.25-2.08,2.69-9.76,12.64-12.98,10.87-.89-.49-1.12-2.17-1.17-4.2l-.05-70.92c-.7-38.01-4.32-77.14-21.38-111.23,1.05-1.45,2.86-1.91,5.43-1.4,10.64,4.11,17.65,14.84,23.17,24.33,12.87,22.13,21.8,47.75,30.83,71.67Z"/>
        <path class="cls-46" d="M842,849.91c-2.02-4.57-2.79-9.89-5.18-14.32-7.26-13.49-22.35-17.04-35.05-22.95-1.18-.55-2.48-1.37-2.77-2.71,11.44-2.72,25.3.97,35.99,5.5,2.7,1.15,4.76,3.41,7.36,4.67s1.04.71,2.65-1.18c1.33,12.23-.32,19.29-3,31Z"/>
        <path class="cls-46" d="M815.99,788.9c-1.23,1.25-19.24-6.04-22.75-6.74-13.13-2.64-26.16.83-39.24.25,14.32-8.17,27.82-11.67,43.97-6.98,6.08,1.76,18.68,5.91,18.02,13.47Z"/>
      </g>
      <g>
        <path class="cls-46" d="M118,1021.91c75.33,24.57,156.39,42.31,233.02,64.48,34.63,10.02,68.92,21.21,103.45,31.54l10.72-33.36c.54-1.55,1.46-1.5,2.82-1.66l.39-1.36,25.9,2.38,2.48-7.47,2.24-.54c1.91-4.42,5.24,1.31,6,4,4.39-.42,11.03,8.87,11,13l.48,2.25c-9.25,10.83-8.9,32.79,9.46,31.51l2.06,1.24c2.32-1.09,2.76-.41,2,2,.89-.23,1.99-.22,2.38.52,4.52,8.75,6.69,12.15,18.17,11.74l1.46,1.73c1.99-.65,3.05-.31,3,2l2.88-.63c11.03,7.96,19.23,9.19,30.33.59l3.78.04c-.42-2.77,1.58-3.77,6-3l2.36-1.39c6.74,2.04,13.05.12,18.01-4.75l2.63.14c-1.24-2.47.73-3.68,3-3l1.85-1.34c7.64,3,16.49-2.35,17.14-10.58l2.01-1.08c-.3-2.56,1.36-2.89,5-1l1.38-2.29c8.22-1.51,14.85-6.78,16.35-15.26l2.27-1.46c-2.38-2.86-.38-3.86,6-3l.61-2.14c9.63-.09,10-15.23,8.74-22.36l1.65-1.5c14.51-10,20.85-25.16,17.5-42.73l1.5-2.27,4.43,5.07c1.71,8.43,8,15.17,10.62,23.38,4.66,14.58,5.41,30.12,7.98,45.05.48,2.8.57.32,1.97,1.51l.77,2.37c-4.22,4.5-7.75,9.14-10.58,13.92l-2.19.72c.74,4.28-.56,6.24-2.94,1.81-5.13,5.48-23.5,19.53-30.48,18.77-.77-.08-1.3-.88-1.65-1.53-11.47,11.07-23.03,22.2-34.69,33.38-34.37,27.35-71.39,18.18-104.03-6.59l-13.01-7.3c6.74,52.45,20.09,103.74,35.45,154.24l.35,5.23h-93l.24-4.82c17.18-54.3,33.71-109.1,41.49-165.73-8.24-6.28-14.32-14.86-18.66-23.61-3.25-3.53-15.43-6.79-16.41.22-1.14,7.19-3.66,13.44-7.58,18.74-4.94,3.29-15.1.23-20.4-1.4-43.52-14.56-87.56-28.27-132.13-41.14l-3.26,22.52c-2.7,20.01-11.73,20.32-28.97,18.84-35.82-3.07-71.73-6.64-107.51-12.51l-18.69,187.86-2.11,1.03h-3l-1.93-.87,15.77-189.35-2.65-.89c-15.65-1.32-36.29-5.04-30.33-25.82,1.37-9.59,2.06-19.19,2.06-28.78-1-1.59-24.28-7.66-25.38-6.92l-2.46,21.71c-2.17,1.94-3.19,1.25-3.07-2.08,2.75-20.63,4.1-41.53,8-62Z"/>
        <path class="cls-16" d="M313.01,1093.91c-3.18,8.92-1.14,35.28-13.53,36.07-44.96-5.81-92.32-7.39-136.86-15.19-6.77-1.19-17.13-2.65-17.69-11.4-.32-5.06,4.19-26.74,6.09-31.95.52-1.43.91-2.81,2.59-3.3l159.4,25.77Z"/>
      </g>
      <path class="cls-49" d="M542,1111.91c-.05.91-.26,1.78-.77,2.54-1.05,1.55-10.77,13.51-11.75,13.93-.36.16-.89-.1-1.48-.47-3.94,2.6-12.56-.69-15.55-3.95-6.73-7.33-4-24.95,3.55-31.05,5.86,5.42,19.03,14.59,26,19Z"/>
      <path class="cls-10" d="M530,1129.91c1.17-3.24,8.18-11.77,11.3-13.77,3.88-2.48,4.28-1.95,6.79,1.73l19.96,13.19-.03,2.93c-.19.97-14.13,12.09-16.02,9.92-5.91,1.55-14.47-1.38-18.46-6.04-2.08-2.44-2.44-5.67-3.54-7.96Z"/>
      <path class="cls-11" d="M598,1142.91c-2.06,1.15-3.89,1.71-6,3l-3.79.51-18.35-8.07-12.05,8.08-2.81-.53c-.85-.5-2.64-.09-3-2,.93-.24,15.59-11.23,15-11.99-1.48-.06-2.73-.8-3.94-1.57-3.1-1.99-15.38-10.06-17.12-12-.93-1.04.26-2.32.06-2.44-2.5-1.48-12.41,13.05-16,13.99-.13-.27-1.89-1-2-2,1.88-1.24,7.82-11.07,10-13.51,1.1-1.22,2.52-1.89,4-2.49,13.96,8.84,41.26,26.23,56,31Z"/>
      <path class="cls-1" d="M592,1145.91c-18.31,11.22-18.57,10.8-37,0l14.68-9.84,22.32,9.84Z"/>
      <path class="cls-25" d="M504,1058.91l2.96,5.53-1.96,15.47c-.21-.2-1.66-.16-2.55-.95-1.32-1.17-1.05-3.7-3.45-3.05,2.05-5.97,3.32-11.03,5-17Z"/>
    </g>
    <g>
      <path class="cls-19" d="M278,340.91c31.09,49.72,88.47,79.86,140.41,101.85l.59,2.15c-2.06,6.44-9.16,11.69-15,15,1.37,2.36.75,3.74-2,3-1.07,5.65-6.51,11.35-12,13l.73,2.2-23.8,27.07c.19,2.53-.45,4.11-1.93,4.74-.92-.54-1.17-.81-1.83-1.62-7.98-9.68-17.47-29.65-24.75-41.3-17.33-27.75-39.07-57.4-53.94-86.06-10.57-20.37-9.27-26.32-11.48-48.02,2.38,1.58,3.85,5.32,5,8Z"/>
      <path class="cls-42" d="M498,401.91l2.36,5.96c6.43,30.66,12.79,61.56,16.93,92.62l-.29,6.43-2.07.75c-14.32-15.61-29.5-30.26-45.53-43.97l-.4-2.78-1.14.76c-9.24-6.75-19.76-14.08-31.8-15.58l-2.07-2.19c-.16-.79-.24-1.89.33-2.17,8.3-4.11,14.58-10.48,20.61-17.82,13.59-16.5,25.52-32.8,37.06-51.01.7-.6,1.23-1.45,2-2,.53,10.33,2.3,20.77,4,31Z"/>
      <path class="cls-52" d="M399,483.91l2.41-.47c4.37,1.78,30.17,29.53,20.59,36.47.94,27.64.88,52.23,4,80,1.85-.2,2.18,1.14,1,4,1.58,13.28,2.87,26.72,5,40-19.37-45.96-43.48-90.11-67-134,10.78-8.69,21.38-17.61,31.81-26.76l2.19.76Z"/>
      <g>
        <path class="cls-36" d="M608,976.91c4.74,1.64,7.95,3.74,13,5,1.46-2.65,3.85-1.84,2,1,.08.77,2.08,1.44,6.01,2.01,13.29,8.42,27.15,15.95,41.6,22.57,5.69,2.52,9.15,5.99,10.38,10.41,2.54-.56,3.61,2.57,4.28,4.77,2.8,9.14-.05,20.48-9.07,24.74-12.54-12.49-26.13-22.53-40.95-32.2-9.8-6.4-14.96-9.14-3.97-.7,21.75,14.35,41.84,30.07,55.74,52.77l-.04,4.62c2.11,6.4.78,20.24-5.02,24.48-2.46,1.8-3.92.99-5.98,1.52-1.85.6-3.7.67-5.55.21.33-8.26-38.18-41.08-39.83-38.79-.39.55,5.05,6.24,5.97,6.77,12.85,8.85,23.94,19.32,33.27,31.41-.43,1.17-.41,2.3.15,3.39-1.52,11.43-9.06,17.25-20,19l-4.21-.83c-9.08-9.65-18.16-18.18-28.46-26.18-15.55-12.08-8.81-5.29.36,3.05,8.74,7.94,17.93,15.61,27.32,22.74v2.21c.31,10.48-11.67,17.86-21.01,13l-2.45.96c-15.48-9.88-30.44-20.53-44.9-31.93,11.57,12.9,26.25,24.03,42.35,31.07l2,2.9c-6.68,6.91-13.22,9.16-23,6l-4.28.57c-16.51-7.77-34.16-16.36-47.82-28.26-2.64.65-4.16-.52-3.91-3.31l-2.9.51c-8.05-5.32-16.06-10.85-23.41-17.1l.31-2.41c-3.85-3.56-7.06-9.3-11-13l-1.1-.6c.51-6.85.54-13.65.1-20.4-.05-3.44-.02-6.92.77-10.29,5.81-24.72,11.35-49.21,16.6-74.05.72-3.38,2.13-6.56,3.62-9.66,5.94,4.72,65.45,5.93,83,12Z"/>
        <path class="cls-19" d="M661,978.91c17.1,6.87,40.02,30.11,45,48,3.01,10.81.82,26.49-6,35.5-1.44,1.91-10.81,11.57-13,9.5-.53-4.1,0-8.26,1.6-12.48,4.16-16.33.17-31.03-6.6-45.52l-3.5-1.49c-12.74-18.66-31.79-26.99-53.81-28.52l-1.69-1c.06-.48-.03-.79-.51-.99-.42-.17-1.01.11-1.49,0-.01-2.43,2.31-3.46,4.11-4.39,9.49-4.95,26.19-2.5,35.89,1.39Z"/>
        <path class="cls-31" d="M624,1133.91c-.41,1.67-2.16,2.13-3,3-14.67-5.25-29.26-16.31-40.53-26.97-1.57-1.48-8.95-8.19-7.98-10.03.91-1.73,2.33.02,3.5.51,9.03,3.84,20.02,15.27,28.7,21.3,5.45,3.79,13.57,9.19,19.31,12.19Z"/>
        <path class="cls-23" d="M670,1100.91c-4.29-5.29-8.58-11.28-13.48-16.02-7.46-7.23-18-13.44-25.06-20.94-3.44-3.65-5.91-10.02,1.08-6.08,7.45,4.2,29.12,22.76,34.44,29.56,2.58,3.31,3.24,5.49,4.88,9.09,1.13,2.49,1.94,1.24,4.14,1.39-1.87.48-3.48,1.73-6.01,1.01-.1.65.09,1.36,0,1.99Z"/>
        <path class="cls-31" d="M650,1119.91c-1.18.19-4.75,1.02-5,1-2.11-.17-29.05-23.65-32.53-26.97-1.16-1.11-11.39-9.94-5.95-11.03,1.74-.35,22.63,16.9,25.49,19.49,6.2,5.61,11.34,12.61,17.99,17.51Z"/>
        <path class="cls-53" d="M681,1017.91c-1.58-2.15-1.81-3.35,1-4,.28.41,1.76.89,2.44,2.01,10.38,17.28,9.45,37.54,2.56,55.99-2.86-8.7-22.08-29.55-29.47-36.03-4.63-4.06-33.96-23.5-34.34-25.61-.31-1.73,1.11-4.49,3.1-3.17,17.91,11.44,36.11,22.63,50.22,38.79,7.05-6.82,9.08-12.46,7.04-22.03-.41-1.92-2.48-4.96-2.54-5.96Z"/>
        <path class="cls-2" d="M682,1013.91c.42,1.23-1.03,3.44-1,4-10.89-10.96-26.33-15.4-39.67-22.83-6.3-3.51-12.61-8.99-19.35-11.21.15-.44,1-.8,1.02-.96,26.03-.84,44.75,10.12,59,31Z"/>
      </g>
      <path class="cls-30" d="M399,483.91l-31.04,26.55c-1.17.69-2,.02-2.96-.55l-.54-4.96,25.54-29.04c3.46,2.15,6.08,5.26,9,8Z"/>
      <path class="cls-51" d="M469,460.91c3.31,2.53,7.31,4.93,10.53,7.97l37.47,38.03c.07.43.77,1.53,1,3-.35,3.21-.67,5.72-4.45,3.99l-48.35-38.28-.2-2.71c1.03-3.89,2.01-8.55,4-12Z"/>
      <g>
        <path class="cls-48" d="M498,401.91c1.72-1.03,1.05-3.72.88-5.36-.31-3.05-3.62-20.83-2.88-21.63,3.07.04,6.02,1.24,8.5,2.99,5.84,4.1,17.53,18.87,23.97,25.03,8.73,8.37,20,16.75,28.18,25.32.73.77,4.74,5.33,4.89,5.67,2.41,5.16-16.53,17.42-13.37,22.8l40.61,21.39c1.42,7.97,1.23,16.07,1.14,24.13-.78,66.41-2.2,133.21-13.18,198.91s-31,130.31-52.27,193.73l-11.47,26.02c1.25-10.21,1.75-20.73,4.68-30.62l-.69-14.38c-1.55-7.29-.07-17.81,4-24-2.2-2.8-2.45-7.22,1-9-1.77-9.69-.16-21.06,4-30-2.13-3.06-1.81-5.51,1-8-1.8-10.06-.76-20.5,3-30-2.15-4.2-1.82-7.53,1-10-2.07-10.64-1.37-21.7,2-32-2.12-2.38-2.51-5.96,1-7-1.03-5.33-1.38-10.82-1.51-16.26-1.5-63.25-3.41-126.29-14.8-188.78-.46-3.64-.1-7.33.31-10.96-2.8-.36-3.08-1.1-1-3-5.7-35.16-13.16-69.93-19-105Z"/>
        <path class="cls-24" d="M423,519.91c2.07-.91,2.72.62,2.76,2.45,23.1,16.56,45.48,34.04,67.13,52.44l2.1-.89c.74.47,1.44.97,2.05,1.58s1.15,1.17,1.41,1.85c2.9,7.52,13.11,38.43,12.23,44.1-.13.84-.39,1.66-.69,2.48.53,4.89-3.01,1.97-3.86-1.49-25.67-21.1-52.4-42.15-80.18-63.15-.6,2.47.66,4.22,2.53,5.8,29.11,21.9,57.28,44.51,84.52,67.85l2.11,2.63c6.72,22.51,12.39,46.34,16.49,69.2.7,3.89,2.39,13.86,1.47,17.24-.1.38-.54.67-1.07.93,2.68,5.73-2.9,6.22-3.2.01-16.69-14.72-34.52-28.67-53.5-41.85-13.39-12.94-27.49-24.66-42.3-35.16-.36-.85-.79-1.49-1-2-3.8-12.82-7.53-26.82-5-40-.31-6.46,4.51-2.08,3.55,2.37,30.64,24.05,60.65,48.18,90.03,72.4,6.88,2.28-32.23-30.59-34.18-32.18-19.01-15.56-38.07-31.14-57.29-46.33l-3.11-.25c-.63-.99-1.21-1.99-1.67-3.06s-.88-2.06-.98-3.1c-2.21-22.37-2.75-44.99-3.14-67.45-.02-1.04.27-2.09.57-3.17s.75-2.16,1.23-3.22c.28-.87.62-.86,1,0Z"/>
        <path class="cls-28" d="M436,654.91l1.8-1.12c31.44,25.28,62.89,50.57,94.36,75.87l.85,3.25c-.5,10.71-1.16,21.32-2,32l-1.82,1.08c-23.63-19.95-47.31-39.93-71.02-59.96l-4.16-6.12c-5.62-14.95-11.95-30.18-18-45Z"/>
        <path class="cls-6" d="M460,715.91c.99-2.75,2.98-1.53,4.97-.11,22.47,16.37,43.95,34.43,63.86,53.87l1.17,5.24c-.9,10.05-1.88,19.98-3,30l-2.01.89c-15.38-13.6-30.77-27.22-46.18-40.87l-3.8-6.02c-5.19-14.22-9.75-28.89-15-43Z"/>
        <path class="cls-8" d="M433,645.91c2-1.52,3.18-.54,4.94.55,11.44,7.11,25.51,22.5,36.58,31.43,12.69,10.24,27.41,19.79,39.98,30.02,2.08,1.7,15.46,13.09,15.99,14.01.71,1.22.49,2.66.51,3.99,1.66.27.97-1.9.99-3,.94-1.17,1.6-.17,2,3-.06,1.63-.88,4.38-1,7l-97-78c-1.02-2.5-2.02-6.64-3-9Z"/>
        <path class="cls-15" d="M531,764.91c-.27,3.39-.7,6.66-1,10-.94-1.38-1.37-2.62-2.63-3.87-17.16-17.03-43.22-38.97-62.88-53.12-1.43-1.03-2.63-1.93-4.49-2.01-1.98-5.32-4-10.68-6-16l77,65Z"/>
        <path class="cls-15" d="M527,804.91c-.3,2.7-.68,5.33-1,8l-47-42c-1.43-3.93-2.58-8.1-4-12l52,46Z"/>
        <path class="cls-37" d="M469,460.91c1.59,2.79-.76,11.12-4,12l1.4,2.55c-2.45,9.53-4.88,19.25-6.5,28.9,14.46,16.96,25.62,37.36,32.56,58.55.24.72.18,1.54.1,2.4s-.3,1.74-.56,2.6l-2.58.05c-20.12-16.98-41.26-33.34-63.41-49.09-.54,1.4-1.51,1.48-3.01,1.04h-1c-.08-2.41.37-5.33.04-7.54-1.01-6.9-17.43-23.2-23.04-28.46-3.34.92-8.99-4.69-9-8,4-4.54,7.95-8.61,12-13l4.3-.29c17.93,6.2,35.04,14.08,51.27,23.9.92.32,1.64-2.24,1.45-3-.32-1.21-19.43-10.81-21.92-11.99-9.56-4.53-19.2-8.26-29.06-11.24-1.91,1.99-4.26,3.1-4.04-.38,4.81-5.17,9.41-10.61,15-15,.32.05.67-.04,1,0,3.28-.73,6.71-.73,10,0,2.33-.22,2.44-.56,4-1,11.97.66,22.78,7.31,32.36,14.17,1.37.98,2.02,2.36,2.64,2.83Z"/>
        <path class="cls-3" d="M404,459.91c1.08,2.04,1.93-1.8,4.07-1.58,1.84.19,13.77,4.51,16.48,5.54,7.33,2.77,15.57,6.78,22.48,10.52,2,1.08,13.1,6.86,13.54,7.49,1.4,1.97-1.04,5.73-.57,8.03-9.52-4.37-18.12-10.42-27.64-14.85-9.93-4.62-20.44-7.57-30.35-12.15.28-.3.67-1.57,2-3Z"/>
        <path class="cls-44" d="M465,472.91l50.51,39.99,2.49-2.99c11.32,70.96,18.7,143.96,16,216l-2-3c.17-8.93-3.46-22.1-5.31-31.19-3.89-19.16-8.43-40.05-13.69-58.81-3.13.38-4.86-6.97-3-9-4.57-16.2-8.76-34.43-15-50-2.91.5-4.41-3.65-3-6-7.13-22.5-18.47-44.79-33.84-62.72-.81-2.8,5.56-27.42,6.84-32.28Z"/>
        <path class="cls-33" d="M426,599.91c1.4-.73.09-3.32,2.01-2.52.87.36,1.74.94,2.48,1.52,26.68,20.77,56.41,44.96,81.98,67.02,6.05,5.22,10.62,8.02,10.52,16.97-11.13-7.04-20.29-16.74-30.51-24.98-21.05-16.97-42.6-33.35-63.46-50.54l-1.01-5.98-1.01,2.5c-.08-.68-.79-2.13-1-4Z"/>
        <path class="cls-33" d="M513,632.91l-2.5,1.01c-8.33-7.98-17.1-15.69-26.02-22.98-18.22-14.88-39.43-28.88-56.95-44.05-3.77-3.27-4.02-4.79-3.52-9.97l3,.5c20.57,17.21,42.74,32.53,63.48,49.52,4.29,3.51,14.1,10.79,17.22,14.26,1.02,1.13,1.17,3.58,1.31,3.72.64.61.92-1,.99-1,.59.04,2.6,7.58,3,9Z"/>
        <path class="cls-29" d="M423,519.91l2.5-3.98c11.73,9.33,24.19,17.76,35.98,27,6.49,5.09,26.7,19.81,30.52,24.98,1.66,2.24,2.01,3.54,3,6l-.5,5c-22.1-19.85-46.47-37.37-70.21-55.29l-1.3-3.7Z"/>
      </g>
      <g>
        <path class="cls-5" d="M469,25.91c43.52,27.37,56.13,76.47,59.63,124.75.05.67-.2,1.37-.48,2.1s-.7,1.46-1.15,2.15c-6.5,2.15-14.05,1.39-20-2-3.12-2.33-6.06-5.23-8.81-8.69-11.72-9.89-61.85-8.57-63.3,13.14l-1.88,1.55c-3.58,4.66-14.19,5.71-20.29,5.83s-16.16-.33-19.71-4.83l-2.17-1.57c-1.35-11.42-10.39-14.66-20.4-16.44-17.29-3.06-47.48-6.19-55.8,13.4l-2.63,1.61c-1.08,1.11-2.29,2.16-3.79,2.62-5.06,1.53-35.41,8.61-37.85,8.14-.8-.15-1.58-.44-2.36-.76-.46-.76-.89-1.53-1.19-2.35s-.56-1.56-.54-2.31c1.8-57.08,8.45-111.41,60.73-142.34,53.78-30.42,91.13-24.04,142,6Z"/>
        <path class="cls-35" d="M268,166.91c-5.44,3.46-11.77,5.8-19,7-1.66,1.95-3.46,1.49-4-1,2.88-32.72,4.36-68.49,20.83-97.67,13.56-24.02,37.56-41.97,61.17-55.33,2.19.66-1.4,2.28-1.89,2.61-23.42,16.08-40.69,39.99-48.61,67.39-7.22,24.99-6.9,51.24-8.5,77Z"/>
        <path class="cls-39" d="M538,142.91c.52,4.51.59,9.51,1,14-2.6,2.1-10.54,1.16-12-2-2.67-31.17-6.89-63.86-23.58-90.92-9.1-14.76-21.24-27-34.42-38.08,53.8,31.77,61.83,55.07,69,117Z"/>
        <path class="cls-36" d="M540,168.91c6.74-.41,12.57,4.15,15.51,9.99,4.19,8.32,2.61,22.85,1.49,32.01-2.45,20.08-8.35,39.98-10.28,60.22-1.62,3.66-3.16,9-7.72,9.78.93-6.36,1.74-16.91,2.04-23.46,1.35-29.07-4.1-57.93-8.04-86.54-.19-3.34,5.47-5.04,7-2Z"/>
        <path class="cls-4" d="M393,159.91c-26.27-6.3-54.16-6.86-81-3,2.31-8.83,10.32-15.22,18.96-17.54s31.04-.95,40.42.66c11.93,2.06,20.65,6.57,21.62,19.88Z"/>
        <path class="cls-39" d="M507,152.91c-27.75-1.95-47.12-1.47-74,6-1.97-16.21,20.22-20.98,32.52-21.98,16.82-1.38,33.72-1.6,41.48,15.98Z"/>
        <path class="cls-47" d="M269,175.91c4.17-.56,25.84-3.05,27.83-1.83,8.25,21.7.85,50.33,30.78,54.71,14.25,2.09,43.81,2.27,56.38-4.88,2.67.13,2.48,1.03,0,2-8.07,10.75-17.4,25.39.69,31.65l1.31,2.35c-8.73,5.79-21.07,1.8-31.24,3.26-14.41,2.07-27.09,20.39-25.81,34.7-19.47,4.14-40.96-8.22-50.12-25.29-9.45-17.6-9.87-52.94-9.88-73.22,0-7.4,2.81-15.88.05-23.45Z"/>
        <path class="cls-7" d="M528,181.91c1.25,5.33,2.28,11.19,2.87,16.63,2.59,23.63,5.7,60.35-8.06,80.69-6.21,9.18-14.76,17.09-26.69,16.56-3.49-11.11-1.8-18.94-11.11-27.39-16.07-14.58-27.05-4.27-44.01-9.49l-.34-2.24c9.56-4.76,12.41-10.69,8.53-17.8-1.97-1.99-17.1-23.2-13.73-24.14.46-.13.99,0,1.54.18,2.59,3.26,6.28,6.64,10.1,8.4,12.82,5.91,46.07,6,59.46,1.65,17.03-5.53,18.51-28.02,21.45-43.05Z"/>
        <path class="cls-7" d="M433,209.91c3.18,9.86,7.32,18.49,14.38,26.49,5.88,9.16-4.78,18.72-13.38,19.51-7.45,4.29-16.9,8.38-25,4l-1.15.81c-7.49-4.68-14.8-6.09-23.51-7.75-11.93-4.51-7.45-20.14-.34-27.06.18-.45-.12-1.39,0-2,4.86-2.76,10.52-11.54,12.86-16.64,4.53-9.91,5.49-38.14,22.41-30.13,8.09,3.83,8.57,25.09,13.73,32.77Z"/>
        <path class="cls-9" d="M492,372.91c-7.9,16.86-19.72,34.46-32.03,48.47-3.04,3.46-17.62,18.96-20.41,20.58-1.13.65-4.11,1.54-5.56,1.94.03,3.08-2.58,3.84-4,1-3.27-.72-6.72-.71-10,0-.25.88-.58.86-1,0-9.73-1.58-38.65-17.32-48.67-22.83-32.75-18-77.37-46.32-92.33-81.17,40.93,60.26,134.43,102.29,197.01,48.51,5.96-5.12,10.98-11.34,16.99-16.51Z"/>
        <path class="cls-14" d="M384,225.91c-1.92,4.85-4.31,8.7-4.9,14.61-1.36,13.52,11.31,10.4,20.88,13.91,3.86,1.42,6.03,3.86,9.02,5.48-1.27,1.02,1.43,1.72-1.4,1.87-2.12.11-6.45.43-8.11.25-2.28-.25-1.6-2.44-2.93-2.77-1.8-.44-8.47.96-10.55.65-5.51-.81-13.51-6.67-14.04-12.5s4.79-14.13,8.21-18.84c1.08-1.49,1.7-2.66,3.84-2.66Z"/>
        <path class="cls-13" d="M437,214.91c-1.66,1.56.11,2.46.78,3.69,1.16,2.1,2.31,5.01,3.38,6.65,5.34,8.2,17.18,15.87,9.26,26.58l-9.42,7.08c-.23-.07-.66-1.48-1.81-1.91-1.44-.53-3.71.14-5.19-1.09,2-1.15,9.66-6.82,11.06-8.44,6-7-2.32-13.16-5.47-18.64s-7.13-13.02-6.58-18.92c2.03,1.09,2.69,3.36,4,5Z"/>
        <g>
          <path class="cls-39" d="M533,170.91c.63.8,1.22,1.62,1.69,2.5s.9,1.71,1.04,2.59c3.13,19.75,5.86,39.62,7.17,59.59.56,8.5,1.06,33.91-1.59,42.35-.38,1.21-1.25,2.3-2.32,2.98-4.92,33.71-23.3,63.61-45,89v1c-.25,2.19-.92,2.85-2,2-55.18,78.05-171.97,39.54-214-32-.93.32-1.74.15-2.4-.55l-2.6-7.45c-2.91-.02-2.56-.88-1-3-3.06-9.23-8.65-18.28-11-28-.84-3.48-1.44-7.46-2-11-3.57-22.56-3.15-45.72-3.04-68.54.07-15.21,3.27-27.86-3.96-42.46.29-4.96,14.02-7.22,17-4,2.28.29,3.32,2.04,3.12,5.26-1.46,24.66-2.38,51.48,3.35,75.93,5.76,24.57,25.35,41.5,51.08,39.17,1.13-15.98,12.13-32.6,28.73-35.19,10.32.28,20.55-.12,30.71-1.18,1.32-3.46,12.1-4.11,13.67.17,3.15-.01,6.26-.07,9.33-.17l2.1-1.2c7.05,2.8,14.49-.45,20.7-3.85l2.19,1.06c3.4-1.06,9.38-2.04,7,3,3.35-.97,6.93-1.1,10.74-.38,25.76-4.13,43.7,8.78,45.85,35.15,29.97-3.53,34.63-41.99,33.45-66.73-1.16-15.02-2.17-30.03-3.04-45.04-3.94-2.61-.01-14.37,5-11Z"/>
          <path class="cls-45" d="M460,288.91l2.01,1.51c-22.4,7.03-45.96,10.33-69.38,7.36-9.66-1.23-19.05-4.49-28.63-5.87,7.33-2.78,16.23-.16,23.46.04,24.4.69,48.34-.65,72.54-3.04Z"/>
          <g>
            <path class="cls-36" d="M465,290.91c4.06-1.67,9.08-1.47,9.98,3.52,7.16,39.91-30.5,76.93-70.18,69.18-19.06-3.72-53.8-25.49-53.8-47.2v-22c0-3.6,4.8-2.31,7-2.5,32.55,12.62,71.98,14.89,103.89-.46-.09-2.06,1.81-2.26,3.11-.54Z"/>
            <path class="cls-22" d="M460,288.91c2.12-.21,3.73-3.29,5,2-2.93,1.21-6.63,4.39-9.77,5.73-24.43,10.45-69.64,9.75-93.61-1.86-1.44-.7-2.95-1.24-3.62-2.88,2.9-.25,2.34-.53,6,0l4.97-.16c30.5,6.95,60,6.35,90.52-1.71.91-.02,1.78.04,2.52.38.18.08-3.81.49-2.01-1.51Z"/>
            <path class="cls-39" d="M436.83,313.17c1.2-.08,6.91-.21,7.03,1.21-.43,24.19-43.71,26.71-54.32,10.48-1.56-2.39-3.63-7.11-1.65-9.54,2.68-3.3,23.77.8,29.65.63s13.19-2.35,19.29-2.78Z"/>
          </g>
        </g>
        <path class="cls-19" d="M430,444.91c-2.66.25-7.41.32-10,0,2.02-1.66,7.79-1.71,10,0Z"/>
        <g>
          <path class="cls-38" d="M249,173.91c3.38-1.34,5.56,3.86,3,6,1.1.12,2.03.57,2.82,1.33,3.03,2.88,4.12,18.52,3.87,23.26-1.26,26.48-1.56,53.94,1.51,80.73l-1.2,5.68c-5.84.47-10.04-5.56-12.53-9.97-5.56-9.82-7.8-24.96-10.47-36.03-3.69-15.28-11.5-40.16-6.47-54.97,1.74-5.14,10.17-16,15.47-17.03,1.15-.22,3.06.28,4,1Z"/>
          <path class="cls-41" d="M244.73,189.18c1.37,1.13,3.48,9.14,3.26,11.15-.56,5.18-3.05,17.18-4.46,22.62-4.37,16.9-5.28,8.69-6.53-2.54-.93-8.42-2.55-22.73,1.96-30.03,1.27-2.05,3.82-2.78,5.76-1.19Z"/>
        </g>
        <g>
          <path class="cls-32" d="M507,152.91c6.73.47,13.32,1.14,20,2,4.05.52,8.09.7,12,2,.37,4,.72,8.02,1,12-1.82.11-5.27,1.2-7,2-5.28,2.44-3.99,5.82-5,11-.06,32.46-8.46,46.8-42.24,47.98-15.05.53-42.47,1.32-48.76-14.98-1.79.48-3.12-1.19-4-5-2.26.82-2.74-.35-3.41-2.25l-5.73-20.03c-5.77-16.15-16.94-11.06-20.15,3.15-2.92,12.86-6.82,25.68-17.67,34.21l-2.03-1.07c-3.7,4.5-9.01,5.53-14.82,6.59-22.48,4.14-63.7,5.42-67.63-24.43-1.43-10.3-3.59-20.4-6.48-30.3-8.24.18-16.46.84-24.64,1.96l-1.42-1.83c-5.79.77-11.9.82-17,4-.87-1.76-1.24-4.66-3-6-.06-3.05,1.42-2.52,3.48-3.02,5.21-1.28,10.49-2.66,15.52-3.98,14.06-3.68,29.68-7.94,44-10,11.74-5.29,27.63-4.76,40.78-4.31,10.9.37,25.01,1.19,35.36,4.17,1.89.54,3.44,1.83,4.87,3.14,17.21,4.12,22.97,3.73,40-1,.49-.66,1.01-1.29,1.61-1.82,8.83-7.79,55.28-7.4,68.51-6.44l3.88,2.26Z"/>
          <g>
            <path class="cls-5" d="M330.8,163.21c12.13-1.04,50.29-1.65,59.71,4.69,12.26,8.24,1.24,39.86-9.04,47.99-11.57,9.15-45.16,9.24-58.7,4.74-14.56-4.83-17.07-35.32-13.33-47.77,2.48-8.28,13.87-9,21.35-9.65Z"/>
            <path class="cls-32" d="M365.01,176.91c.2,17.03-22.13,17.83-22.02,0-.43-.54-11.39,4.17-12.96,4.55-1.78.43-1.8.5-3.02-1.07-.76-3.65,19.71-11.11,23.48-11.49,8.93-.89,21.22,3.2,26.5,10.49-.81,3.88-9.54-3.19-11.99-2.48Z"/>
          </g>
          <g>
            <path class="cls-5" d="M467.79,160.2c11.53-.76,31.68-1.42,42.42,1.99,11.34,3.6,9.66,19.12,8.66,29.1-2.21,21.98-9.25,27.59-30.39,29.61-29.19,2.79-51.97-2.1-55.36-35.61-2.44-24.07,15.47-23.81,34.67-25.08Z"/>
            <path class="cls-27" d="M491.99,180.91c-.63.48-12.33-5.61-14.99-5,1.72,17.22-22.33,17.76-20.01,0-.79-.9-13.21,7.27-11.99,1.51.93-4.41,18.97-9.66,23.45-9.55,3.59.09,23.81,6.88,24.41,9.66.07.32-.74,3.27-.88,3.38Z"/>
          </g>
        </g>
      </g>
    </g>
  </g>
</svg>